<svg xmlns="http://www.w3.org/2000/svg" fill="#FFFFFF" width="52" height="52" data-name="Layer 1" style=""><rect id="backgroundrect" width="100%" height="100%" x="0" y="0" fill="none" stroke="none"/><g class="currentLayer" style=""><title>Layer 1</title><path d="M43.62,52a2,2,0,0,1-1.09-.33L26,40.83,9.47,51.67a2,2,0,0,1-2,.09,2,2,0,0,1-1-1.76V2a2,2,0,0,1,2-2H43.62a2,2,0,0,1,2,2V50a2,2,0,0,1-1,1.76A2,2,0,0,1,43.62,52ZM26,36.44a2.1,2.1,0,0,1,1.1.32L41.62,46.3V4H10.38V46.3L24.9,36.76A2.1,2.1,0,0,1,26,36.44Z" id="svg_1" class="" stroke-width="2" stroke-dasharray="none" stroke="#FFFFFF" stroke-opacity="1"/></g></svg>