<svg xmlns="http://www.w3.org/2000/svg" width="36.67796609073628" height="33.67796609073628" fill="none" style=""><rect id="backgroundrect" width="100%" height="100%" x="0" y="0" fill="none" stroke="none" style="" class=""/>


<g class="currentLayer" style=""><title>Layer 1</title><path d="M21.580187018321727,3.5959569668252613 C21.580187018321727,2.132129424997104 20.516245518969274,0.8880601106126436 19.07667215769169,0.6688454051931025 C18.711329190777516,0.6132132960755953 18.33970825402615,0.6132132960755953 17.974190899060943,0.6688454051931025 C16.534617537783358,0.8880601106126436 15.470501650379873,2.132129424997104 15.470501650379873,3.595974499793782 V5.666039494176639 C14.648122479318356,5.902050783439411 13.864631843637202,6.230969272895587 13.132062518857694,6.640784879108201 L11.675556077824808,5.176413815255891 C10.646021340941168,4.141337485643162 9.018649487506128,4.018115782876743 7.8465525189029925,4.886523713727723 C7.549063942645764,5.106948193975223 7.286278588544105,5.3711524966199535 7.0670379307853946,5.670247406621707 C6.203293914018845,6.848673286863103 6.325836397479746,8.48486744222237 7.355371134363388,9.519961304803623 L8.811877575396275,10.984332368655933 C8.40424550610659,11.720839777322546 8.077093522368642,12.508560987039342 7.842367205678199,13.335538513274921 H5.783419803546644 C4.327436526666855,13.335538513274921 3.090048671756959,14.405224922748339 2.8720112915503733,15.852571474166645 C2.8166779629575958,16.22006249436928 2.8166779629575958,16.593690053554308 2.8720112915503733,16.961005744071734 C3.090048671756959,18.40835229549004 4.327436526666855,19.47821403464867 5.783402364741541,19.47821403464867 H7.842349766873097 C8.077093522368642,20.3050688301046 8.40424550610659,21.09282510575844 8.811877575396275,21.829209783645407 L7.355371134363388,23.293563314529194 C6.325836397479746,24.32870977601601 6.203293914018845,25.964886398406755 7.0670379307853946,27.14327721271111 C7.286278588544105,27.442389655681385 7.549063942645764,27.706611491294638 7.846569957708098,27.927000905605087 C9.018666926311232,28.795408836456073 10.64603877974627,28.672327397437822 11.675556077824808,27.637180935951008 L13.132062518857694,26.172827405067217 C13.864631843637202,26.58257287940575 14.648122479318356,26.911491368861924 15.470501650379873,27.14748512515618 V29.217602718444596 C15.470501650379873,30.681430260272755 16.534617537783358,31.9255697065313 17.974190899060943,32.144731813045276 C18.339533865975117,32.20031132325722 18.711329190777516,32.20031132325722 19.07667215769169,32.144731813045276 C20.516245518969274,31.9255697065313 21.580187018321727,30.681430260272755 21.580187018321727,29.217602718444596 V27.14766045484139 C22.40277545504448,26.911491368861924 23.18630096833584,26.58257287940575 23.918730782674526,26.172827405067217 L25.37521978490231,27.637180935951008 C26.40480683820126,28.672327397437822 28.032196130441402,28.795408836456073 29.20425822143433,27.927000905605087 C29.501764236496662,27.706611491294638 29.764567029403423,27.442389655681385 29.98377280955193,27.14327721271111 C30.847516826318476,25.964886398406755 30.725096414493294,24.32870977601601 29.695509361194347,23.293738644214407 L28.239020358966563,21.829385113330616 C28.64656523423073,21.09282510575844 28.973717217968677,20.3050688301046 29.208617922710157,19.47821403464867 H31.26744325320599 C32.72340909128067,19.47821403464867 33.96086670141098,18.40835229549004 34.17885176520225,16.961005744071734 C34.23413277737973,16.593690053554308 34.23413277737973,16.22006249436928 34.17885176520225,15.852571474166645 C33.96086670141098,14.405224922748339 32.72340909128067,13.335538513274921 31.26744325320599,13.335538513274921 H29.208443534659125 C28.973717217968677,12.508543454070818 28.64656523423073,11.720822244354022 28.239020358966563,10.984297302718891 L29.695509361194347,9.519926238866582 C30.725096414493294,8.484832376285329 30.847516826318476,6.848673286863103 29.98377280955193,5.670247406621707 C29.764567029403423,5.3711524966199535 29.501764236496662,5.106948193975223 29.20425822143433,4.886523713727723 C28.032196130441402,4.018115782876743 26.40480683820126,4.141319952674638 25.37521978490231,5.176413815255891 L23.918730782674526,6.640784879108201 C23.18630096833584,6.230951739927066 22.40277545504448,5.902033250470887 21.580187018321727,5.666021961208118 V3.5959569668252613 z" stroke="#ffffff" stroke-width="3" stroke-linecap="round" stroke-linejoin="round" id="svg_1" class="" fill="none" stroke-opacity="1"/><path d="M13.567796694265837,16.66101754127888 C13.567796694265837,13.829412156294701 15.787425380384239,11.53389835357666 18.525423528265648,11.53389835357666 C21.263421676147065,11.53389835357666 23.48305036226546,13.829412156294701 23.48305036226546,16.66101754127888 C23.48305036226546,19.492622926263063 21.263421676147065,21.7881367289811 18.525423528265648,21.7881367289811 C15.787425380384239,21.7881367289811 13.567796694265837,19.492622926263063 13.567796694265837,16.66101754127888 z" stroke="#FFFFFF" stroke-width="3" id="svg_2" class="selected" stroke-opacity="1"/></g></svg>