<svg xmlns="http://www.w3.org/2000/svg" fill="#000000" width="17.632653061224516" height="17.469387755102034" style=""><rect id="backgroundrect" width="100%" height="100%" x="0" y="0" fill="none" stroke="none" style="" class=""/>
  
<g class="currentLayer" style=""><title>Layer 1</title><path id="Path_18" data-name="Path 18" d="M8.113494987867684,8.081632667862575 a3.979591875955066,3.959183684367275 0 1 1 3.979591875955066,-3.959183684367275 A3.979591875955066,3.959183684367275 0 0 1 8.113494987867684,8.081632667862575 zm0,-6.928571447642732 a2.9846939069662994,2.9693877632754564 0 1 0 2.9846939069662994,2.9693877632754564 A2.9846939069662994,2.9693877632754564 0 0 0 8.113494987867684,1.1530612202198454 zM14.589285868015565,16.00000003659713 h-12.933673596853964 A1.4923469534831497,1.4846938816377282 0 0 1 0.16326531767845154,14.515306154959399 A4.482015350294393,4.459030624518644 0 0 1 4.640306178127901,10.061224510046214 h6.964285782921365 A4.482015350294393,4.459030624518644 0 0 1 16.081632821498715,14.515306154959399 A1.4923469534831497,1.4846938816377282 0 0 1 14.589285868015565,16.00000003659713 zm-9.948979689887665,-4.948979605459094 A3.4821428914606827,3.464285723821366 0 0 0 1.1581632866672182,14.515306154959399 a0.4974489844943834,0.49489796054590957 0 0 0 0.4974489844943834,0.49489796054590957 h12.933673596853964 a0.4974489844943834,0.49489796054590957 0 0 0 0.4974489844943834,-0.49489796054590957 A3.4821428914606827,3.464285723821366 0 0 0 11.604591961049266,11.051020431138033 z" class="" stroke="#ffffff" stroke-opacity="1" fill="#ffffff" fill-opacity="1" stroke-width="1" transform="translate(0.8163265585899353,0.5714285969734192) "/></g></svg>